<?xml version="1.0" standalone="no"?>
<!DOCTYPE svg PUBLIC "-//W3C//DTD SVG 20010904//EN"
 "http://www.w3.org/TR/2001/REC-SVG-20010904/DTD/svg10.dtd">
<svg version="1.0" xmlns="http://www.w3.org/2000/svg"
 width="700.000000pt" height="700.000000pt" viewBox="0 0 700.000000 700.000000"
 preserveAspectRatio="xMidYMid meet">
<metadata>
Created by potrace 1.11, written by Peter Selinger 2001-2013
</metadata>
<g transform="translate(0.000000,700.000000) scale(0.100000,-0.100000)"
fill="#000000" stroke="none">
<path d="M3235 6934 c-701 -68 -1283 -289 -1810 -687 -236 -178 -493 -435
-672 -672 -369 -488 -584 -1023 -675 -1675 -18 -129 -18 -671 0 -800 91 -652
306 -1187 675 -1675 179 -237 436 -494 672 -672 430 -325 947 -551 1465 -641
239 -42 300 -47 610 -47 310 0 371 5 610 47 518 90 1035 316 1465 641 236 178
493 435 672 672 369 488 584 1023 675 1675 18 129 18 671 0 800 -58 412 -153
741 -311 1075 -178 375 -403 688 -708 985 -186 183 -307 281 -513 417 -441
291 -897 459 -1480 543 -74 11 -597 22 -675 14z m-930 -1798 c483 -66 934
-228 1330 -480 906 -574 1481 -1562 1522 -2618 l6 -158 -270 0 -271 0 -7 123
c-9 155 -30 324 -56 447 -178 822 -711 1509 -1459 1881 -322 160 -655 251
-1015 278 -77 6 -155 11 -172 11 l-33 0 0 272 0 271 158 -6 c86 -3 207 -13
267 -21z m-220 -1076 c406 -38 789 -187 1121 -436 98 -73 275 -244 360 -346
196 -234 358 -552 434 -849 40 -158 70 -370 70 -502 l0 -47 -272 2 -273 3 -7
105 c-33 532 -319 1006 -780 1292 -230 142 -517 229 -798 241 l-55 2 -3 273
-2 272 47 0 c27 0 98 -5 158 -10z m-23 -1101 c206 -29 435 -146 593 -304 175
-176 292 -422 314 -665 4 -52 6 -98 4 -102 -2 -5 -249 -8 -549 -8 l-544 0 0
543 c0 299 2 546 5 549 6 6 84 1 177 -13z"/>
</g>
</svg>
