<?xml version="1.0" standalone="no"?>
<!DOCTYPE svg PUBLIC "-//W3C//DTD SVG 20010904//EN"
 "http://www.w3.org/TR/2001/REC-SVG-20010904/DTD/svg10.dtd">
<svg version="1.0" xmlns="http://www.w3.org/2000/svg"
     width="512.000000pt" height="512.000000pt"
     viewBox="0 0 512.000000 512.000000"
     preserveAspectRatio="xMidYMid meet">
    <metadata>
        Created by potrace 1.14, written by Peter Selinger 2001-2017
    </metadata>
    <g transform="translate(0.000000,512.000000) scale(0.100000,-0.100000)"
       fill="#000000" stroke="none">
        <path d="M760 5100 c-363 -91 -638 -367 -733 -738 l-22 -87 0 -1715 0 -1715
26 -96 c50 -179 135 -325 264 -454 152 -153 325 -242 540 -280 132 -23 3318
-23 3450 0 215 38 388 127 540 280 129 129 214 275 264 454 l26 96 0 1715 0
1715 -22 87 c-95 373 -372 650 -738 738 -78 19 -131 20 -1800 19 -1645 0
-1723 -1 -1795 -19z m811 -1090 c204 -31 315 -58 504 -121 728 -243 1342 -782
1680 -1474 84 -172 108 -231 163 -405 74 -233 118 -480 128 -720 6 -144 5
-145 -19 -175 l-25 -30 -220 -3 -220 -3 -34 30 -35 30 -7 118 c-6 100 -39 318
-59 388 -4 11 -15 52 -25 90 -50 183 -164 452 -244 577 -19 29 -43 67 -53 83
-10 17 -62 89 -115 160 -259 346 -655 633 -1084 786 -207 74 -451 126 -646
136 -102 6 -106 7 -137 39 l-33 32 0 212 0 212 35 35 36 36 143 -7 c78 -3 198
-15 267 -26z m-231 -940 c330 -35 642 -150 914 -337 153 -106 385 -337 489
-488 189 -276 302 -583 337 -916 17 -164 15 -177 -27 -217 l-38 -34 -208 -2
c-114 0 -207 2 -207 7 0 4 -6 7 -13 7 -27 0 -48 39 -58 106 -46 317 -103 475
-249 699 -79 121 -221 268 -345 355 -87 62 -238 147 -273 155 -9 2 -45 16 -80
30 -72 30 -197 59 -342 79 -101 14 -140 32 -140 63 0 7 -3 13 -7 13 -5 0 -7
93 -7 207 l2 208 34 38 c40 42 53 44 218 27z m-17 -971 c213 -44 360 -122 508
-269 100 -99 150 -168 206 -285 36 -77 79 -235 89 -331 6 -59 5 -61 -29 -97
l-34 -37 -234 0 c-129 0 -331 -3 -450 -6 l-217 -6 -42 42 -42 42 6 217 c3 119
6 321 6 450 l0 234 36 33 c42 41 58 42 197 13z"/>
    </g>
</svg>
