<?xml version="1.0" standalone="no"?>
<!DOCTYPE svg PUBLIC "-//W3C//DTD SVG 20010904//EN"
 "http://www.w3.org/TR/2001/REC-SVG-20010904/DTD/svg10.dtd">
<svg version="1.0" xmlns="http://www.w3.org/2000/svg"
     width="512.000000pt" height="512.000000pt"
     viewBox="0 0 512.000000 512.000000"
     preserveAspectRatio="xMidYMid meet">
    <metadata>
        Created by potrace 1.14, written by Peter Selinger 2001-2017
    </metadata>
    <g transform="translate(0.000000,512.000000) scale(0.100000,-0.100000)"
       fill="#000000" stroke="none">
        <path d="M841 4789 c-40 -11 -95 -31 -121 -44 -119 -60 -275 -217 -336 -336
-13 -26 -34 -85 -46 -131 l-23 -83 0 -1630 0 -1630 23 -83 c12 -46 34 -105 47
-132 60 -119 217 -275 336 -336 26 -13 85 -34 131 -46 l83 -23 1625 0 1625 0
83 23 c46 12 105 33 131 46 119 61 276 217 336 336 13 27 35 86 47 132 l23 83
0 1630 0 1630 -23 83 c-12 46 -33 105 -46 131 -61 119 -217 276 -336 336 -26
13 -83 33 -126 45 -77 20 -96 20 -1718 19 -1601 0 -1643 -1 -1715 -20z m734
-779 c147 -22 140 -21 258 -49 371 -88 752 -269 1062 -504 270 -205 521 -477
709 -768 70 -108 199 -360 243 -474 125 -320 196 -668 204 -996 2 -73 -16
-114 -58 -130 -14 -5 -115 -9 -225 -9 -185 0 -203 2 -234 20 -41 26 -43 33
-49 157 -14 317 -159 787 -320 1038 -21 33 -47 76 -58 95 -51 92 -227 307
-333 409 -377 362 -836 587 -1353 660 -69 10 -154 19 -189 20 -137 4 -142 14
-142 287 l0 206 36 36 35 35 142 -6 c78 -4 201 -16 272 -27z m-120 -955 c171
-31 225 -45 360 -93 522 -188 968 -634 1156 -1155 37 -102 66 -202 75 -257 3
-14 11 -61 19 -105 8 -44 17 -128 21 -188 l7 -107 -42 -40 -42 -40 -204 0
c-130 0 -205 4 -205 10 0 6 -6 10 -13 10 -26 0 -48 37 -57 96 -42 258 -52 302
-112 453 -121 302 -364 568 -656 716 -187 94 -277 122 -531 160 -92 14 -131
32 -131 62 0 7 -4 13 -10 13 -6 0 -10 75 -10 205 l0 204 40 42 40 42 107 -7
c60 -4 144 -13 188 -21z m-113 -959 c216 -49 339 -117 493 -271 158 -158 224
-280 275 -510 28 -130 27 -157 -12 -198 l-33 -34 -447 -7 c-494 -8 -473 -10
-519 55 -19 28 -20 37 -13 476 l7 448 34 33 c43 40 69 41 215 8z"/>
    </g>
</svg>
